<?xml version="1.0" ?><svg id="Layer_1" style="enable-background:new 0 0 100 100;" version="1.1" viewBox="0 0 100 100" xml:space="preserve" xmlns="http://www.w3.org/2000/svg" xmlns:xlink="http://www.w3.org/1999/xlink"><path d="M92.6,29.8c-1.1-4.4-4.8-7.7-9.3-8.2c-22.1-2.8-44.5-2.8-66.6,0c-4.5,0.6-8.2,3.9-9.3,8.2c-2.2,8.9-2.2,31.6,0,40.5  c1.1,4.4,4.8,7.7,9.3,8.2c11.1,1.4,22.2,2.1,33.3,2.1s22.3-0.7,33.3-2.1c4.5-0.6,8.2-3.9,9.3-8.2C94.9,61.4,94.9,38.6,92.6,29.8z   M65.5,50.9l-25,15C40.4,66,40.2,66,40,66c-0.2,0-0.3,0-0.5-0.1C39.2,65.7,39,65.4,39,65V35c0-0.4,0.2-0.7,0.5-0.9  c0.3-0.2,0.7-0.2,1,0l25,15c0.3,0.2,0.5,0.5,0.5,0.9S65.8,50.7,65.5,50.9z"/></svg>